<svg width="647" height="602" viewBox="0 0 647 602" fill="none" xmlns="http://www.w3.org/2000/svg">
<path opacity="0.1" d="M323.5 602C502.164 602 647 588.569 647 572C647 555.431 502.164 542 323.5 542C144.836 542 0 555.431 0 572C0 588.569 144.836 602 323.5 602Z" fill="#297D3B"/>
<path d="M509.787 268.439L502.52 269.552L510.929 324.459L518.196 323.346L509.787 268.439Z" fill="#99B2C6"/>
<path d="M509.782 268.478L502.594 269.622L504.227 264.067L505.044 261.126L506.678 263.577L509.782 268.478Z" fill="#FF8C64"/>
<path d="M517.621 319.439L510.354 320.552L510.972 324.589L518.239 323.476L517.621 319.439Z" fill="#35252F"/>
<path d="M518.277 326.638L511.905 327.619C511.578 327.619 511.415 327.455 511.415 327.128L510.925 324.351L518.277 323.208L518.767 325.985C518.767 326.312 518.603 326.638 518.277 326.638Z" fill="#EF452F"/>
<path d="M506.676 263.577L504.226 264.067L505.042 261.126L506.676 263.577Z" fill="#35252F"/>
<path d="M510.373 320.554L517.64 319.441L517.195 316.535L509.928 317.648L510.373 320.554Z" fill="#F68407"/>
<path d="M504.718 272.072L510.926 312.752C510.926 313.078 511.253 313.242 511.579 313.242C511.906 313.242 512.07 312.915 512.07 312.588L505.861 271.909C505.861 271.582 505.535 271.418 505.208 271.418C504.881 271.418 504.718 271.745 504.718 272.072Z" fill="#99B2C6"/>
<path d="M507.657 271.582L513.865 312.262C513.865 312.589 514.192 312.752 514.519 312.752C514.846 312.752 515.009 312.425 515.009 312.098L508.801 271.419C508.801 271.092 508.474 270.929 508.147 270.929C507.821 270.929 507.657 271.255 507.657 271.582Z" fill="#99B2C6"/>
<path d="M522.927 268.63L515.576 268.654L515.757 324.2L523.108 324.176L522.927 268.63Z" fill="#03A89E"/>
<path d="M523.015 268.64L515.663 268.804L518.114 263.412L519.257 260.798L520.564 263.412L523.015 268.64Z" fill="#FF8C64"/>
<path d="M523.174 320.255L515.823 320.279L515.836 324.363L523.188 324.339L523.174 320.255Z" fill="#35252F"/>
<path d="M522.689 327.455H516.317C515.991 327.455 515.827 327.292 515.827 326.965V324.188H523.179V326.965C523.179 327.292 523.015 327.455 522.689 327.455Z" fill="#EF452F"/>
<path d="M520.566 263.414H518.115L519.259 260.8L520.566 263.414Z" fill="#35252F"/>
<path d="M515.821 320.281L523.172 320.257L523.163 317.317L515.811 317.341L515.821 320.281Z" fill="#3C7341"/>
<path d="M517.459 271.418L517.622 312.588C517.622 312.914 517.949 313.078 518.112 313.078C518.439 313.078 518.603 312.751 518.603 312.588L518.439 271.418C518.439 271.091 518.112 270.928 517.949 270.928C517.786 270.928 517.459 271.091 517.459 271.418Z" fill="#03A89E"/>
<path d="M520.401 271.419L520.564 312.589C520.564 312.915 520.891 313.079 521.054 313.079C521.381 313.079 521.545 312.752 521.545 312.589L521.381 271.419C521.381 271.092 521.054 270.929 520.891 270.929C520.564 270.929 520.401 271.092 520.401 271.419Z" fill="#03A89E"/>
<path d="M535.731 269.477L528.452 268.442L520.637 323.439L527.916 324.473L535.731 269.477Z" fill="#4D44B5"/>
<path d="M535.758 269.459L528.406 268.479L531.51 263.578L533.144 261.127L534.124 263.904L535.758 269.459Z" fill="#FF8C64"/>
<path d="M528.509 320.523L521.23 319.488L520.655 323.532L527.934 324.567L528.509 320.523Z" fill="#35252F"/>
<path d="M526.936 327.619L520.564 326.639C520.238 326.639 520.074 326.312 520.074 326.149L520.401 323.372L527.753 324.352L527.426 327.129C527.426 327.456 527.263 327.619 526.936 327.619Z" fill="#EF452F"/>
<path d="M534.125 263.904L531.511 263.578L533.144 261.127L534.125 263.904Z" fill="#35252F"/>
<path d="M521.181 319.371L528.46 320.406L528.874 317.494L521.595 316.46L521.181 319.371Z" fill="#1B48CA"/>
<path opacity="0.6" d="M529.876 271.419L524.158 312.099C524.158 312.426 524.321 312.752 524.648 312.752C524.975 312.752 525.301 312.589 525.301 312.262L531.019 271.583C531.019 271.256 530.856 270.929 530.529 270.929C530.203 270.929 529.876 271.093 529.876 271.419Z" fill="#4D44B5"/>
<path opacity="0.6" d="M532.655 271.91L526.937 312.589C526.937 312.916 527.1 313.243 527.427 313.243C527.753 313.243 528.08 313.079 528.08 312.752L533.798 272.073C533.798 271.746 533.635 271.419 533.308 271.419C532.981 271.256 532.818 271.583 532.655 271.91Z" fill="#4D44B5"/>
<path d="M538.21 290.697L537.72 293.638L537.393 296.415L536.903 300.5L536.577 303.114L535.923 307.361L535.596 309.975L535.106 314.059L534.78 316.673L534.289 320.921L533.963 323.535L533.309 327.783L532.982 330.233L532.656 332.52H503.739L503.412 330.233L503.085 327.783L502.595 323.535L502.269 320.921L501.778 316.673L501.452 314.059L500.798 309.975L500.471 307.361L499.981 303.114L499.655 300.5L499.165 296.415L498.838 293.638L498.348 290.697H538.21Z" fill="#FF69B4"/>
<path d="M537.719 293.638L537.393 296.415H499.164L498.837 293.638H537.719Z" fill="#FF2291"/>
<path d="M536.904 300.5L536.577 303.114H499.982L499.655 300.5H536.904Z" fill="#FF2291"/>
<path d="M535.922 307.36L535.596 309.974H500.797L500.471 307.36H535.922Z" fill="#FF2291"/>
<path d="M535.104 314.06L534.778 316.674H501.776L501.45 314.06H535.104Z" fill="#FF2291"/>
<path d="M534.288 320.922L533.961 323.536H502.594L502.267 320.922H534.288Z" fill="#FF2291"/>
<path d="M533.307 327.782L532.98 330.232H503.41L503.083 327.782H533.307Z" fill="#FF2291"/>
<path opacity="0.2" d="M212.965 99.1668C238.68 99.1668 259.526 78.3208 259.526 52.6059C259.526 26.891 238.68 6.04492 212.965 6.04492C187.25 6.04492 166.404 26.891 166.404 52.6059C166.404 78.3208 187.25 99.1668 212.965 99.1668Z" fill="#4D44B5"/>
<path d="M212.965 93.1219C238.68 93.1219 259.526 72.2759 259.526 46.561C259.526 20.846 238.68 0 212.965 0C187.25 0 166.404 20.846 166.404 46.561C166.404 72.2759 187.25 93.1219 212.965 93.1219Z" fill="#4D44B5"/>
<path d="M212.964 84.4622C233.875 84.4622 250.866 67.4715 250.866 46.56C250.866 25.6484 233.875 8.65771 212.964 8.65771C192.052 8.65771 175.062 25.6484 175.062 46.56C175.062 67.4715 192.052 84.4622 212.964 84.4622Z" fill="white"/>
<path opacity="0.2" d="M175.062 46.56C175.062 47.5402 175.062 48.5204 175.225 49.5007C176.695 30.0594 193.196 14.5391 212.964 14.5391C232.895 14.5391 249.232 29.896 250.703 49.5007C250.703 48.5204 250.866 47.5402 250.866 46.56C250.866 25.6484 233.875 8.65771 212.964 8.65771C192.052 8.65771 175.062 25.6484 175.062 46.56Z" fill="#4D44B5"/>
<path d="M212.965 50.482C213.292 50.482 213.618 50.3186 213.782 50.1553L232.406 25.1594C232.733 24.6693 232.569 24.1792 232.243 23.8524C231.753 23.5257 231.263 23.689 230.936 24.0158L212.802 48.5216L192.053 39.3727C191.563 39.2094 191.073 39.3727 190.746 39.8629C190.583 40.353 190.746 40.8431 191.236 41.1698L212.475 50.482C212.638 50.482 212.802 50.482 212.965 50.482Z" fill="#06152B"/>
<path d="M492.165 301.607L453.269 433.049C451.48 438.862 446.115 442.885 440.154 442.885L282.184 443.332C273.839 443.332 267.132 436.328 267.579 427.982C268.026 420.233 274.435 414.123 282.184 414.123H342.541L390.975 279.401H475.474C487.098 279.401 495.443 290.578 492.165 301.607Z" fill="#99B2C6"/>
<path d="M394.403 425.598C374.567 425.598 358.487 425.331 358.487 425.002C358.487 424.673 374.567 424.406 394.403 424.406C414.238 424.406 430.318 424.673 430.318 425.002C430.318 425.331 414.238 425.598 394.403 425.598Z" fill="#06152B"/>
<path d="M480.54 283.574C480.242 283.425 469.512 314.87 456.547 353.916C443.581 392.812 433.298 424.406 433.596 424.555C433.894 424.704 444.624 393.259 457.59 354.214C470.555 315.317 480.838 283.574 480.54 283.574Z" fill="#06152B"/>
<path d="M365.044 559.724L374.731 559.426V442.886H365.044V559.724Z" fill="#FFD66B"/>
<path d="M414.67 559.127H325.104L365.64 545.119H375.326L414.67 559.127Z" fill="#FFD66B"/>
<path d="M437.324 249.147L422.57 323.214L425.253 378.802L325.553 362.259L329.428 313.676L329.577 273.439L305.136 320.83L286.061 284.02L320.933 220.981C327.341 214.423 334.793 209.506 343.735 206.227C348.056 204.588 352.676 203.693 358.041 203.544C369.516 207.121 380.992 207.121 392.616 203.544C393.957 203.693 395.894 203.843 398.428 204.141C398.577 204.141 398.726 204.141 398.875 204.141C420.037 206.674 436.132 224.259 437.324 245.57V249.147Z" fill="#FF69B4"/>
<path d="M398.279 204.14C398.279 204.14 439.262 204.438 444.329 247.656L445.074 279.399L409.754 279.101L398.279 204.14Z" fill="#FF69B4"/>
<path d="M300.367 259.728C300.367 260.026 332.557 260.325 372.347 260.325C412.138 260.325 444.328 260.026 444.328 259.728C444.328 259.43 412.138 259.132 372.347 259.132C332.557 259.132 300.367 259.43 300.367 259.728Z" fill="white"/>
<path d="M300.367 266.583C300.367 266.881 332.557 267.18 372.347 267.18C412.138 267.18 444.328 266.881 444.328 266.583C444.328 266.285 412.138 265.987 372.347 265.987C332.557 265.987 300.367 266.285 300.367 266.583Z" fill="white"/>
<path d="M302.751 254.065C302.751 254.363 334.494 254.661 373.54 254.661C412.585 254.661 444.328 254.363 444.328 254.065C444.328 253.767 412.585 253.469 373.54 253.469C334.345 253.469 302.751 253.767 302.751 254.065Z" fill="white"/>
<path d="M330.024 320.831C330.322 320.831 330.173 303.245 329.726 281.636C329.279 260.027 328.683 242.442 328.236 242.442C327.938 242.442 328.087 260.027 328.534 281.636C329.13 303.245 329.726 320.831 330.024 320.831Z" fill="#06152B"/>
<path d="M344.032 292.366C344.032 292.366 324.659 293.707 321.231 298.923C317.803 303.99 312.438 318.595 314.376 318.744C316.462 318.893 317.803 317.701 317.803 317.701L323.168 308.312C323.168 308.312 322.274 317.403 325.553 317.552C328.682 317.701 344.479 320.831 344.479 320.831L344.032 292.366Z" fill="#FFBE9D"/>
<path d="M444.925 270.905V320.829C444.329 332.453 433.301 340.799 421.974 338.415L343.884 322.32L344.033 290.279L411.393 303.244L412.288 269.415L444.925 270.905Z" fill="#FF69B4"/>
<path d="M400.365 334.392C400.365 334.392 400.067 334.243 399.321 334.094C398.576 333.945 397.533 333.647 396.341 333.349C393.658 332.753 389.784 332.007 384.866 330.964C374.881 328.878 360.872 326.046 344.181 322.619L344.628 323.066C344.628 313.081 344.628 301.904 344.628 290.131L344.032 290.727C348.503 291.621 353.123 292.515 357.743 293.409C377.414 297.135 395.894 300.712 411.393 303.692L411.989 303.841V303.245C411.542 288.342 411.095 275.973 410.797 267.18C410.648 262.858 410.499 259.58 410.349 257.195C410.349 256.152 410.2 255.258 410.2 254.513C410.2 253.917 410.051 253.619 410.051 253.619C410.051 253.619 410.051 253.917 410.051 254.513C410.051 255.258 410.051 256.003 410.051 257.195C410.051 259.58 410.2 263.007 410.2 267.329C410.349 276.122 410.648 288.491 411.095 303.394L411.691 302.947C396.192 299.966 377.712 296.39 358.041 292.515C353.272 291.621 348.652 290.727 344.33 289.833L343.734 289.683V290.28C343.734 302.053 343.734 313.081 343.734 323.215V323.662L344.181 323.811C360.872 327.09 374.881 329.772 384.866 331.709C389.784 332.604 393.658 333.349 396.341 333.796C397.682 333.945 398.576 334.243 399.47 334.392C400.067 334.392 400.365 334.392 400.365 334.392Z" fill="#06152B"/>
<path d="M355.507 204.141C355.507 204.141 355.358 204.439 355.209 204.886C355.06 205.333 354.762 206.078 354.613 207.122C354.166 209.059 354.017 212.039 354.911 215.467C355.805 218.895 358.19 222.769 361.617 225.899C365.194 229.178 370.261 231.264 375.775 231.264C381.289 231.264 386.505 229.029 389.784 225.601C393.062 222.173 394.553 217.852 395 214.275C395.447 210.698 394.702 207.718 393.957 205.929C393.659 205.035 393.211 204.29 392.913 203.843C392.615 203.396 392.466 203.098 392.466 203.247C392.317 203.247 392.913 204.29 393.51 206.078C394.106 207.867 394.553 210.698 394.106 214.126C393.659 217.553 392.168 221.577 388.89 224.856C385.76 228.134 380.842 230.221 375.626 230.221C370.41 230.221 365.492 228.284 362.065 225.154C358.637 222.173 356.401 218.597 355.358 215.169C354.315 211.89 354.464 208.91 354.613 207.122C355.358 205.184 355.656 204.141 355.507 204.141Z" fill="#263238"/>
<path d="M351.781 324.854C351.93 324.854 351.93 322.917 351.781 319.936C351.632 316.956 351.483 312.783 351.483 308.163C351.483 303.543 351.483 299.37 351.632 296.39C351.781 293.409 351.781 291.472 351.632 291.472C351.483 291.472 351.185 293.26 350.887 296.39C350.589 299.37 350.44 303.692 350.44 308.312C350.44 312.932 350.738 317.105 351.036 320.234C351.334 323.066 351.632 325.003 351.781 324.854Z" fill="#FAFAFA"/>
<path d="M355.806 325.749C355.955 325.749 355.955 323.811 355.955 320.831C355.955 317.403 355.806 313.379 355.806 309.057C355.806 304.736 355.806 300.712 355.806 297.284C355.806 294.304 355.806 292.366 355.657 292.366C355.508 292.366 355.209 294.155 355.06 297.284C354.911 300.265 354.762 304.437 354.762 309.057C354.762 313.677 354.911 317.85 355.209 320.831C355.358 323.96 355.657 325.749 355.806 325.749Z" fill="#FAFAFA"/>
<path d="M277.564 524.105L262.81 564.79L241.798 593.552C240.307 595.639 240.903 598.619 242.99 599.96C244.182 600.706 245.672 600.855 247.013 600.258C255.508 596.682 286.506 583.716 287.4 580.736C288.443 577.159 308.413 533.494 308.413 533.494L277.564 524.105Z" fill="#FF69B4"/>
<g opacity="0.6">
<g opacity="0.6">
<path d="M243.139 599.961L288.592 578.054L287.996 579.694C287.4 581.184 286.357 582.376 285.016 583.121C281.29 585.059 270.858 590.424 247.46 600.259C245.97 600.856 244.331 600.707 243.139 599.961Z" fill="#93079F"/>
</g>
</g>
<g opacity="0.6">
<g opacity="0.6">
<g opacity="0.6">
<path opacity="0.6" d="M285.463 561.81C284.122 562.108 283.228 563.449 283.526 564.791C283.824 566.132 285.165 567.026 286.506 566.728C287.848 566.43 288.891 564.791 288.593 563.598C288.146 562.406 286.506 561.363 285.314 561.959" fill="white"/>
</g>
</g>
</g>
<path d="M259.234 585.952C258.936 585.952 258.936 583.567 256.85 581.481C254.912 579.395 252.528 579.097 252.528 578.799C252.528 578.65 253.124 578.5 254.167 578.799C255.21 579.097 256.403 579.693 257.595 580.885C258.638 582.077 259.234 583.418 259.383 584.462C259.532 585.356 259.383 585.952 259.234 585.952Z" fill="#06152B"/>
<path d="M254.168 590.274C253.87 590.423 253.125 588.485 251.337 587.144C249.548 585.654 247.611 585.356 247.611 585.058C247.611 584.76 249.846 584.76 251.933 586.399C254.019 587.889 254.466 590.125 254.168 590.274Z" fill="#06152B"/>
<path d="M267.281 581.034C266.983 581.183 265.791 578.352 263.109 575.967C260.426 573.434 257.595 572.54 257.744 572.242C257.744 571.944 261.022 572.54 263.854 575.222C266.685 577.905 267.43 581.034 267.281 581.034Z" fill="#06152B"/>
<path d="M272.795 569.112C272.646 569.261 270.709 567.473 267.877 566.28C265.046 564.939 262.512 564.79 262.512 564.641C262.512 564.343 265.195 564.194 268.324 565.535C271.305 566.728 272.944 568.963 272.795 569.112Z" fill="#06152B"/>
<path d="M277.416 557.339C277.266 557.488 275.478 555.252 272.349 554.209C269.219 553.017 266.536 553.762 266.536 553.464C266.536 553.315 267.133 553.017 268.325 552.868C269.517 552.719 271.156 552.719 272.796 553.315C274.435 553.911 275.776 554.805 276.521 555.699C277.266 556.594 277.416 557.19 277.416 557.339Z" fill="#06152B"/>
<path d="M273.242 551.974C273.242 551.974 273.242 551.378 273.838 550.483C274.286 549.589 275.18 548.248 276.67 546.907C277.415 546.311 278.16 545.566 279.501 545.416C280.098 545.416 280.992 545.864 281.29 546.46C281.588 547.205 281.439 547.95 281.29 548.546C280.247 551.08 277.117 552.719 274.136 551.974C271.156 551.229 269.219 548.546 268.92 545.864C268.92 545.267 268.92 544.373 269.517 543.926C270.113 543.33 271.007 543.33 271.603 543.777C272.795 544.373 273.242 545.416 273.689 546.162C274.584 547.801 275.031 549.291 275.18 550.334C275.329 551.378 275.329 551.974 275.329 551.974C275.18 551.974 275.031 549.589 273.093 546.46C272.646 545.715 272.05 544.82 271.156 544.373C270.709 544.224 270.262 544.224 270.113 544.522C269.815 544.82 269.666 545.267 269.815 545.864C270.113 548.099 271.901 550.483 274.435 551.08C276.968 551.676 279.8 550.334 280.545 548.248C280.694 547.801 280.843 547.205 280.694 546.758C280.545 546.311 280.247 546.162 279.8 546.162C278.905 546.162 278.011 546.758 277.266 547.354C274.136 549.738 273.391 552.123 273.242 551.974Z" fill="#06152B"/>
<path d="M215.27 513.524L216.612 546.608C216.612 546.608 183.527 558.977 183.08 565.087L247.162 564.938L247.312 513.375L215.27 513.524Z" fill="#FF69B4"/>
<g opacity="0.6">
<g opacity="0.6">
<path opacity="0.6" d="M236.431 543.776C237.623 544.074 238.518 545.564 238.22 546.757C237.922 547.949 236.58 548.843 235.239 548.545C234.047 548.247 232.855 546.608 233.302 545.415C233.749 544.223 235.388 543.18 236.58 543.925" fill="white"/>
</g>
</g>
<g opacity="0.6">
<path d="M247.163 564.938V559.871L185.465 561.958C185.465 561.958 182.633 563.15 182.931 565.236L247.163 564.938Z" fill="#93079F"/>
</g>
<path d="M215.569 546.31C215.569 546.608 217.208 546.757 218.698 547.8C220.337 548.694 221.083 550.184 221.381 550.035C221.679 550.035 221.232 548.098 219.294 546.906C217.357 545.565 215.42 546.012 215.569 546.31Z" fill="#06152B"/>
<path d="M208.861 548.992C208.861 549.29 210.202 549.886 211.245 551.078C212.289 552.419 212.587 553.761 212.885 553.761C213.183 553.761 213.332 551.972 211.991 550.333C210.649 548.843 208.861 548.694 208.861 548.992Z" fill="#06152B"/>
<path d="M204.986 557.039C205.285 557.039 205.732 555.549 204.837 553.761C204.092 551.972 202.602 551.376 202.453 551.674C202.304 551.972 203.198 552.867 203.943 554.208C204.539 555.698 204.688 557.039 204.986 557.039Z" fill="#06152B"/>
<path d="M216.015 538.709C216.164 539.008 217.654 538.56 219.294 538.709C221.082 538.859 222.423 539.306 222.572 539.157C222.721 538.858 221.38 537.815 219.294 537.666C217.356 537.368 215.866 538.411 216.015 538.709Z" fill="#263238"/>
<g opacity="0.3">
<path opacity="0.3" d="M215.569 520.081L215.718 525.893L247.312 525.595V520.23L215.569 520.081Z" fill="black"/>
</g>
<path d="M215.866 532.003C215.866 532.152 217.059 532.301 219.145 532.003C220.188 531.854 221.232 531.556 222.573 530.96C223.169 530.662 223.765 530.364 224.361 529.917C224.659 529.768 224.957 529.47 225.255 529.172C225.553 528.874 225.851 527.979 225.404 527.532C225.106 527.085 224.51 526.787 224.063 526.787C223.616 526.787 223.169 526.936 222.871 526.936C222.126 527.085 221.53 527.383 220.933 527.681C219.741 528.277 218.698 529.023 217.953 529.619C216.463 530.96 216.016 532.152 216.016 532.301C216.165 532.45 216.91 531.407 218.4 530.215C219.145 529.619 220.188 529.023 221.232 528.575C221.828 528.277 222.424 528.128 223.02 527.979C223.765 527.83 224.212 527.83 224.51 528.128C224.51 528.277 224.51 528.277 224.51 528.426C224.361 528.575 224.063 528.724 223.765 529.023C223.169 529.321 222.573 529.768 222.126 530.066C221.083 530.662 219.89 530.96 218.996 531.258C217.208 531.705 215.866 531.854 215.866 532.003Z" fill="#263238"/>
<path d="M216.313 532.45C216.462 532.45 217.058 531.407 217.208 529.32C217.208 528.277 217.207 527.085 216.76 525.744C216.611 525.148 216.313 524.402 215.866 523.806C215.419 523.21 214.972 522.316 213.78 522.167C213.184 522.167 212.588 522.614 212.439 523.061C212.29 523.508 212.141 523.806 212.141 524.253C211.991 524.999 211.991 525.744 212.141 526.489C212.29 527.83 212.886 529.022 213.482 529.767C214.674 531.407 216.015 531.854 216.015 531.705C216.164 531.556 214.972 530.96 214.078 529.32C213.631 528.575 213.184 527.532 213.035 526.34C213.035 525.744 213.035 525.148 213.035 524.551C213.184 523.806 213.333 523.359 213.631 523.359C213.929 523.359 214.525 523.806 214.823 524.402C215.121 524.999 215.419 525.595 215.568 526.191C216.015 527.383 216.164 528.426 216.164 529.32C216.462 531.258 216.164 532.45 216.313 532.45Z" fill="#263238"/>
<path d="M247.312 355.107C285.165 358.982 335.387 364.198 335.387 364.198L328.532 425.896C328.532 425.896 254.763 406.373 255.21 408.012C255.806 409.652 251.782 539.306 251.782 539.306H207.372L206.478 392.514C206.329 370.308 225.255 352.872 247.312 355.107Z" fill="#06152B"/>
<path d="M426.146 379.995V399.07C426.146 412.036 411.243 425.896 398.277 425.896H388.143C380.245 425.896 367.726 420.083 361.318 415.464L357.444 412.632L311.096 555.997C311.096 555.997 258.191 546.459 258.191 544.82C258.191 543.181 294.107 427.386 310.649 373.587C317.355 351.68 340.901 338.863 362.66 346.315C363.405 346.613 364.15 346.911 364.895 347.209C388.59 356.896 426.146 379.995 426.146 379.995Z" fill="#06152B"/>
<path d="M258.34 544.969C258.34 544.969 258.489 544.82 258.638 544.522C258.787 544.075 258.936 543.628 259.234 543.032C259.681 541.69 260.426 539.753 261.321 537.07C263.109 531.854 265.493 524.403 268.474 515.014C274.435 496.386 282.334 470.455 290.977 441.841C295.299 427.535 299.323 413.824 303.048 401.455C304.837 395.196 306.625 389.383 308.264 383.869C309.159 381.038 309.904 378.504 310.649 375.822C311.394 373.288 312.139 370.755 313.033 368.52C314.822 364.049 317.653 360.621 320.485 357.938C323.316 355.256 325.999 353.319 328.383 351.828C330.619 350.338 332.407 349.146 333.748 348.401C334.344 348.103 334.791 347.805 335.09 347.507C335.388 347.357 335.537 347.208 335.537 347.208C335.537 347.208 335.388 347.208 335.09 347.507C334.642 347.656 334.195 347.954 333.599 348.252C332.258 348.997 330.47 350.04 328.234 351.53C325.85 353.021 323.167 354.958 320.187 357.491C317.355 360.174 314.375 363.602 312.437 368.221C311.394 370.457 310.649 372.99 309.904 375.524C309.159 378.057 308.264 380.74 307.519 383.422C305.88 388.936 304.092 394.898 302.154 401.008C298.429 413.377 294.256 427.088 289.934 441.394C281.29 470.008 273.541 495.79 267.878 514.716C265.046 523.956 262.662 531.556 261.023 536.921C260.277 539.455 259.532 541.541 259.085 542.883C258.936 543.479 258.787 544.075 258.638 544.522C258.34 544.671 258.34 544.969 258.34 544.969Z" fill="#455A64"/>
<path d="M247.163 389.532C246.865 389.681 249.398 393.556 251.485 398.623C253.571 403.69 254.465 408.161 254.912 408.161C255.21 408.161 254.763 403.541 252.528 398.176C250.292 392.811 247.312 389.234 247.163 389.532Z" fill="#455A64"/>
<path d="M238.668 395.493C238.519 395.791 242.394 397.431 246.269 400.56C250.292 403.69 252.826 406.969 253.124 406.82C253.422 406.67 251.187 402.945 247.014 399.666C242.841 396.387 238.668 395.195 238.668 395.493Z" fill="#455A64"/>
<path d="M310.798 556.146C311.096 556.295 323.615 517.845 338.667 470.455C353.867 423.064 365.79 384.465 365.492 384.465C365.194 384.316 352.675 422.766 337.623 470.156C322.571 517.547 310.5 555.997 310.798 556.146Z" fill="#455A64"/>
<path d="M367.577 332.455L216.015 333.946L187.849 254.066L297.981 254.812L323.614 326.643L367.577 327.239V332.455Z" fill="#99B2C6"/>
<path d="M251.783 300.862C248.409 300.862 245.673 298.126 245.673 294.752C245.673 291.377 248.409 288.642 251.783 288.642C255.158 288.642 257.894 291.377 257.894 294.752C257.894 298.126 255.158 300.862 251.783 300.862Z" fill="white"/>
<path d="M379.944 116.364C378.454 110.999 374.579 108.465 369.364 106.677C364.148 104.889 358.037 105.932 353.716 109.21C350.735 111.446 348.5 114.724 345.072 115.917C339.409 117.854 332.703 113.681 327.189 116.215C323.91 117.705 322.122 121.729 322.867 125.156C323.761 128.584 327.189 131.267 330.765 131.118C327.039 132.459 325.847 137.824 328.083 141.102C330.318 144.381 334.789 145.722 338.664 144.977C342.538 144.232 345.966 141.848 348.947 139.165C351.927 136.483 354.61 133.502 357.739 131.118C360.869 128.733 364.744 126.945 368.767 127.094C374.132 127.392 378.752 131.416 381.137 136.185C383.521 140.953 384.117 146.467 384.415 151.832C384.713 157.198 384.862 162.712 386.353 167.779C386.502 168.375 386.8 169.12 387.396 169.269C388.29 169.567 389.035 168.673 389.482 167.779C394.4 158.688 397.53 148.703 398.573 138.42C399.169 132.459 399.02 126.796 395.741 121.878C392.314 116.811 383.968 113.085 379.944 116.364Z" fill="#06152B"/>
<path d="M390.376 141.252L393.059 201.609C393.506 211.891 392.165 227.092 375.92 227.092C361.763 226.049 357.59 212.786 357.292 203.248C357.143 198.777 356.845 194.902 356.845 194.455C356.845 194.455 341.495 193.71 339.558 178.509C338.663 171.207 338.067 156.006 337.769 142.146C337.322 127.392 348.499 114.725 363.104 113.235L364.594 113.086C380.54 112.341 389.929 125.306 390.376 141.252Z" fill="#FFAA8C"/>
<path d="M356.695 194.158C356.695 194.158 366.382 193.86 375.92 186.408C375.92 186.408 372.343 197.883 357.142 198.032L356.695 194.158Z" fill="#EB996E"/>
<path d="M343.282 151.833C343.431 153.025 344.474 153.919 345.666 153.77C346.858 153.77 347.752 152.727 347.752 151.535C347.603 150.342 346.56 149.448 345.368 149.597C344.027 149.746 343.133 150.641 343.282 151.833Z" fill="#263238"/>
<path d="M341.791 149.299C342.089 149.597 343.579 148.106 345.964 147.957C348.348 147.659 350.137 148.703 350.286 148.404C350.435 148.255 350.137 147.808 349.242 147.361C348.497 146.914 347.156 146.467 345.666 146.616C344.176 146.765 342.983 147.51 342.387 148.106C341.791 148.554 341.642 149.15 341.791 149.299Z" fill="#263238"/>
<path d="M366.232 150.193C366.381 151.385 367.424 152.279 368.616 152.13C369.808 152.13 370.703 151.087 370.703 149.895C370.554 148.702 369.51 147.808 368.318 147.957C366.977 148.106 366.083 149 366.232 150.193Z" fill="#263238"/>
<path d="M364.743 147.213C365.041 147.511 366.531 146.02 368.916 145.871C371.3 145.573 373.088 146.617 373.237 146.319C373.386 146.17 373.088 145.722 372.194 145.275C371.449 144.828 370.108 144.381 368.617 144.53C367.127 144.679 365.935 145.424 365.339 146.02C364.743 146.617 364.594 147.064 364.743 147.213Z" fill="#263238"/>
<path d="M358.185 165.394C358.185 165.245 356.694 165.096 354.31 165.096C353.714 165.096 353.118 165.096 352.969 164.649C352.82 164.202 352.969 163.605 353.118 162.86C353.565 161.37 354.012 159.731 354.459 158.091C356.247 151.385 357.439 145.871 357.141 145.871C356.843 145.871 355.204 151.236 353.416 157.942C352.969 159.582 352.521 161.221 352.223 162.711C352.074 163.456 351.776 164.202 352.223 165.096C352.372 165.543 352.969 165.841 353.267 165.841C353.714 165.99 354.012 165.841 354.31 165.841C356.694 165.692 358.185 165.543 358.185 165.394Z" fill="#263238"/>
<path d="M365.19 166.288C364.742 166.288 365.041 168.822 363.103 170.908C361.166 172.994 358.334 172.994 358.483 173.292C358.483 173.441 359.079 173.74 360.272 173.59C361.464 173.441 362.954 172.994 364.146 171.802C365.339 170.61 365.786 168.971 365.786 167.927C365.637 166.884 365.339 166.288 365.19 166.288Z" fill="#263238"/>
<path d="M363.104 138.123C363.402 138.719 365.637 138.123 368.469 138.272C371.3 138.272 373.536 138.868 373.834 138.272C373.983 137.973 373.536 137.377 372.493 136.93C371.598 136.483 370.108 136.036 368.469 136.036C366.83 136.036 365.339 136.483 364.445 136.93C363.551 137.377 363.104 137.824 363.104 138.123Z" fill="#263238"/>
<path d="M341.941 142.444C342.388 142.891 344.028 142.146 345.816 141.997C347.753 141.699 349.393 141.997 349.691 141.401C349.84 141.103 349.542 140.656 348.797 140.209C348.051 139.762 346.859 139.463 345.518 139.612C344.177 139.762 343.134 140.358 342.537 140.954C341.941 141.55 341.792 142.146 341.941 142.444Z" fill="#263238"/>
<path d="M390.228 152.578C390.526 152.429 400.362 148.405 401.107 158.837C401.852 169.269 391.271 167.928 391.271 167.63C391.271 167.183 390.228 152.578 390.228 152.578Z" fill="#FFBE9D"/>
<path d="M394.102 163.308C394.102 163.308 394.251 163.457 394.549 163.606C394.847 163.755 395.443 163.755 395.89 163.606C396.934 163.159 397.828 161.371 397.679 159.434C397.679 158.539 397.381 157.645 396.934 156.9C396.486 156.155 396.039 155.708 395.443 155.559C394.847 155.41 394.549 155.857 394.4 156.155C394.251 156.453 394.4 156.602 394.251 156.751C394.251 156.751 393.953 156.602 394.102 156.155C394.102 156.006 394.251 155.708 394.4 155.41C394.698 155.261 394.996 155.112 395.443 155.112C396.188 155.112 397.083 155.857 397.53 156.602C397.977 157.347 398.275 158.39 398.424 159.434C398.573 161.52 397.53 163.606 396.188 164.054C395.443 164.352 394.847 164.054 394.549 163.904C394.251 163.606 394.102 163.457 394.102 163.308Z" fill="#EB996E"/>
<path d="M334.194 139.315C341.049 140.358 348.351 137.824 353.12 132.906C356.548 129.33 358.783 124.561 363.254 122.623C366.235 121.282 369.811 121.58 372.792 122.921C375.772 124.263 378.306 126.349 380.69 128.734C378.604 136.781 381.436 145.127 384.267 152.876C384.565 153.77 385.012 154.665 385.757 155.112C387.099 155.857 388.887 154.963 389.781 153.77C391.271 151.833 391.718 149.15 391.868 146.766C392.315 141.103 391.868 135.291 389.93 129.926C388.142 124.561 384.863 119.643 380.392 116.066C374.729 111.744 367.427 109.956 360.274 110.85C353.12 111.744 346.563 115.023 341.496 119.941C339.112 122.176 336.876 124.859 335.982 127.988" fill="#06152B"/>
<path d="M540.6 477.113C535.235 474.431 528.976 473.983 523.164 475.027C520.034 475.623 516.756 476.517 514.52 478.901C512.434 481.286 511.987 485.459 514.371 487.545C515.862 488.737 517.948 488.886 519.885 488.886C524.505 488.886 529.572 487.992 533.298 490.824C535.384 492.463 536.875 494.996 539.259 495.891C541.792 496.636 544.475 495.145 545.816 492.91C547.157 490.675 547.157 487.843 546.561 485.459C546.71 485.31 545.965 479.796 540.6 477.113Z" fill="#03A89E"/>
<path d="M552.819 453.567C549.541 458.186 543.282 456.696 540.301 453.865C537.321 451.033 536.128 446.86 534.936 442.986C532.403 434.044 529.72 424.655 531.657 415.564C532.254 412.882 533.297 410.199 535.234 408.113C537.171 406.027 540.152 404.834 542.835 405.579C545.964 406.474 548.051 409.603 549.392 412.435C553.565 421.227 555.8 430.765 555.8 440.452C555.949 445.072 555.353 449.841 552.819 453.567Z" fill="#03A89E"/>
<path d="M561.761 460.273C558.184 456.1 557.588 449.99 559.078 444.774C560.718 439.558 564.145 435.087 568.318 431.361C573.087 427.04 578.75 423.761 584.86 421.675C587.245 420.78 589.778 420.184 592.312 420.482C594.845 420.78 597.379 421.973 598.571 424.208C600.359 427.487 598.571 431.51 596.782 434.789C593.653 440.601 589.927 446.115 585.903 451.331C582.625 455.504 578.899 459.677 573.981 461.465C569.063 463.402 563.847 463.104 561.314 459.677" fill="#03A89E"/>
<path d="M553.117 523.609C553.117 523.609 552.968 522.864 552.819 521.523C552.67 520.033 552.521 518.095 552.223 515.711C551.925 513.326 551.627 510.346 550.882 507.216C550.286 504.087 549.093 500.659 547.752 497.231C546.411 493.804 544.623 490.674 542.685 488.29C540.748 485.756 538.363 483.968 536.277 482.925C534.191 481.882 532.253 481.434 530.912 481.285C529.571 481.136 528.826 480.987 528.826 480.987C528.826 480.987 529.571 480.987 530.912 480.987C532.253 481.136 534.34 481.434 536.575 482.478C538.81 483.521 541.344 485.309 543.43 487.843C545.517 490.376 547.305 493.506 548.646 497.082C549.988 500.51 551.031 503.938 551.627 507.216C552.223 510.346 552.521 513.326 552.819 515.711C552.968 518.095 553.117 520.182 553.117 521.523C553.117 522.864 553.117 523.609 553.117 523.609Z" fill="#06152B"/>
<path d="M552.67 519.139C552.67 519.139 552.67 518.841 552.67 518.096C552.67 517.351 552.67 516.457 552.67 515.264C552.67 512.88 552.67 509.303 552.521 504.981C552.372 496.338 551.627 486.949 550.137 473.834C548.795 461.465 547.007 447.009 545.07 437.621C544.623 435.534 544.175 433.597 543.877 431.958C543.43 430.318 543.132 428.828 542.834 427.636C542.536 426.593 542.387 425.698 542.238 424.953C542.089 424.357 542.089 424.059 542.089 424.059C542.089 424.059 542.238 424.357 542.387 424.953C542.536 425.698 542.834 426.593 543.132 427.636C543.43 428.828 543.877 430.169 544.325 431.958C544.772 433.597 545.219 435.534 545.666 437.621C547.603 446.115 549.541 458.038 551.031 471.152C552.521 484.416 553.117 496.338 553.117 505.13C553.117 509.452 553.117 513.029 552.968 515.413C552.968 516.606 552.819 517.5 552.819 518.245C552.67 518.841 552.67 519.139 552.67 519.139Z" fill="#06152B"/>
<path d="M552.67 495.89C552.67 495.89 552.67 494.847 552.67 492.91C552.819 490.972 552.968 488.29 553.564 485.011C554.16 481.733 554.905 477.709 556.098 473.536C556.694 471.599 557.886 466.83 560.867 459.826C564.89 450.288 570.255 442.538 575.024 437.769C576.067 436.428 577.409 435.534 578.303 434.64C578.75 434.193 579.197 433.746 579.793 433.448C580.24 433.149 580.687 432.851 581.134 432.553C582.625 431.51 583.519 430.914 583.668 430.914C583.817 431.063 580.24 433.298 575.62 438.067C571 442.985 565.784 450.586 561.761 459.975C559.525 465.042 558.035 469.661 556.843 473.536C555.651 477.709 554.756 481.733 554.16 485.011C553.564 488.29 553.266 490.972 552.968 492.91C552.819 494.996 552.67 495.89 552.67 495.89Z" fill="#06152B"/>
<path d="M575.025 536.873L572.64 568.616H531.807L529.422 536.873H575.025Z" fill="#FFD66B"/>
<path d="M524.503 524.354H578.898V536.873H524.503V524.354Z" fill="#FFD66B"/>
<path d="M573.072 574.605L575.467 568.644H529.268L531.944 574.605H573.072Z" fill="#FFD66B"/>
<path d="M530.316 547.157C530.316 547.157 530.316 547.306 530.465 547.455C530.614 547.604 530.763 547.902 531.061 548.2C531.657 548.945 532.402 549.988 533.445 551.18L533.594 551.329C535.085 549.243 537.022 546.56 539.407 543.282H539.109C540.897 545.815 542.834 548.498 544.921 551.478L545.07 551.776L545.219 551.478C547.305 548.945 549.69 546.262 552.074 543.282H551.627C551.776 543.431 551.925 543.58 552.074 543.729C554.16 546.411 556.247 548.945 558.184 551.329L558.333 551.627L558.482 551.329C560.569 548.349 562.506 545.666 564.294 543.133H563.996C566.828 546.411 569.212 549.094 571.15 551.18L571.299 551.329L571.448 551.18C572.342 549.541 573.087 548.349 573.683 547.455C573.981 547.007 574.13 546.709 574.279 546.411C574.428 546.113 574.428 546.113 574.428 546.113C574.428 546.113 574.279 546.262 574.13 546.411C573.981 546.709 573.683 547.007 573.534 547.305C572.938 548.2 572.193 549.392 571.15 551.031H571.299C569.51 548.945 567.126 546.113 564.294 542.835L564.145 542.686L563.996 542.835C562.208 545.368 560.271 548.051 558.184 550.882H558.631C556.694 548.498 554.607 545.815 552.521 543.282C552.372 543.133 552.223 542.984 552.074 542.835L551.925 542.537L551.776 542.835C549.391 545.666 547.156 548.498 544.921 551.031H545.368C543.281 548.051 541.344 545.368 539.556 542.984L539.407 542.686L539.258 542.984C537.022 546.262 534.936 549.094 533.594 551.18H533.744C532.7 549.988 531.806 548.945 531.21 548.2C530.912 547.902 530.763 547.604 530.614 547.455C530.316 547.306 530.316 547.157 530.316 547.157Z" fill="#030229"/>
<path d="M551.777 536.873C539.184 536.873 528.975 536.74 528.975 536.575C528.975 536.41 539.184 536.277 551.777 536.277C564.37 536.277 574.578 536.41 574.578 536.575C574.578 536.74 564.37 536.873 551.777 536.873Z" fill="#455A64"/>
<path d="M128.835 187.897L157.15 306.524H149.251L121.234 187.897H128.835Z" fill="#06152B"/>
<path d="M139.714 265.988C140.161 268.223 126.749 332.901 126.749 332.901H133.157L143.291 281.636L139.714 265.988Z" fill="#06152B"/>
<path d="M45.2289 418.444H178.162V559.425H45.2289V418.444Z" fill="#99B2C6"/>
<path d="M38.5228 439.01H45.0801V445.567H38.5228V439.01Z" fill="#06152B"/>
<path d="M38.5228 459.725H45.0801V466.282H38.5228V459.725Z" fill="#06152B"/>
<path d="M38.5228 480.589H45.0801V487.146H38.5228V480.589Z" fill="#06152B"/>
<path d="M38.5228 501.303H45.0801V507.86H38.5228V501.303Z" fill="#06152B"/>
<path d="M38.3732 482.377C38.3732 482.377 37.6281 482.228 36.4359 481.93C35.0946 481.781 33.3063 481.333 30.7728 481.333C28.3883 481.333 25.4078 481.781 22.7253 483.42C21.384 484.314 20.0427 485.506 19.2976 487.146C18.4034 488.785 18.1054 490.573 18.2544 492.511C18.4035 494.299 18.9995 496.087 19.8937 497.578C20.7879 499.068 21.9801 500.26 23.3214 501.154C25.8549 503.092 28.6864 503.837 31.0708 504.284C33.4553 504.582 35.3927 504.582 36.7339 504.433C38.0752 504.284 38.8203 504.135 38.8203 504.135C38.8203 504.135 38.0752 504.135 36.7339 504.135C35.3927 504.135 33.4553 504.135 31.2199 503.688C28.9844 503.241 26.3019 502.346 23.7685 500.558C21.384 498.77 19.1486 495.789 18.9996 492.362C18.8506 490.573 19.1486 488.934 19.8937 487.444C20.6389 485.953 21.8311 484.91 23.0233 484.016C25.5568 482.377 28.3883 481.93 30.7728 481.781C33.1572 481.781 34.9456 481.93 36.2868 482.079C37.6281 482.377 38.3732 482.526 38.3732 482.377Z" fill="#06152B"/>
<path d="M40.0132 461.811C40.0132 461.811 39.8642 461.662 39.4171 461.364C38.97 461.215 38.3739 460.917 37.4797 460.619C35.6914 460.023 33.0089 459.576 29.8793 460.172C29.1341 460.321 28.24 460.619 27.4948 461.066C26.7497 461.513 26.0046 462.408 25.7065 463.451C25.1104 465.388 25.8555 467.624 27.1968 469.412C27.9419 470.306 28.8361 471.051 29.8793 471.498C30.9225 471.945 32.4128 471.945 33.456 471.349C34.4991 470.753 35.5423 469.561 35.5423 468.22C35.5423 466.878 34.6482 465.537 33.456 464.941C32.2637 464.345 30.9225 464.345 29.5812 464.494C28.389 464.792 27.1968 465.388 26.3026 466.133C24.3652 467.624 23.173 469.859 23.024 472.094C22.7259 474.33 23.6201 476.416 24.6633 478.056C25.8555 479.695 27.3458 480.738 28.6871 481.483C31.6676 482.973 34.3501 483.271 36.1385 483.421C37.0327 483.421 37.7778 483.57 38.2249 483.57C38.672 483.57 38.97 483.57 38.97 483.57C38.97 483.57 37.9268 483.421 36.1385 483.271C34.3501 482.973 31.8166 482.675 28.9851 481.185C27.6439 480.44 26.1536 479.397 25.1104 477.906C24.0672 476.416 23.322 474.479 23.6201 472.392C23.9181 470.306 24.9613 468.369 26.7497 467.027C27.6439 466.282 28.687 465.835 29.7302 465.537C30.7734 465.239 31.9657 465.388 33.0089 465.835C34.0521 466.282 34.6482 467.325 34.6482 468.369C34.6482 469.412 33.9031 470.306 33.0089 470.902C32.1147 471.498 30.9225 471.498 30.0283 471.051C28.9851 470.753 28.24 470.008 27.6439 469.263C26.3026 467.773 25.7065 465.686 26.1536 463.898C26.6007 462.109 28.24 461.215 29.8793 460.917C33.0089 460.172 35.5424 460.619 37.3307 461.066C39.119 461.364 40.0132 461.96 40.0132 461.811Z" fill="#06152B"/>
<path d="M39.8643 441.544C39.8643 441.544 39.4172 441.395 38.374 441.246C37.4798 441.246 35.9895 441.246 34.3502 441.842C32.7109 442.438 30.9226 443.481 29.4323 445.12C27.942 446.909 26.8988 449.293 26.8988 451.976C26.7498 454.658 27.6439 457.192 28.9852 458.98C30.3264 460.768 32.1148 461.961 33.7541 462.557C35.3934 463.153 36.7347 463.302 37.6288 463.302C38.523 463.302 39.1191 463.153 39.1191 463.153C39.1191 463.004 36.8837 463.451 33.9031 461.961C32.4128 461.215 30.7735 460.172 29.5813 458.384C28.24 456.596 27.4949 454.36 27.6439 451.827C27.793 449.293 28.6871 447.058 30.0284 445.418C31.3696 443.779 33.158 442.736 34.6483 442.14C37.7779 441.246 39.8643 441.693 39.8643 441.544Z" fill="#06152B"/>
<path d="M138.669 343.632C138.669 343.632 138.073 344.526 137.477 346.314C136.881 348.103 136.284 350.785 135.688 354.362C135.092 357.939 134.645 362.26 134.198 367.178C133.751 372.245 133.304 377.908 132.559 384.317C132.41 385.956 132.112 387.446 131.814 389.085C131.516 390.725 131.068 392.364 130.323 393.854C129.578 395.345 128.386 396.686 127.045 397.878C125.704 399.07 124.362 400.263 122.723 401.157C119.593 403.094 115.868 404.435 111.993 404.882C108.118 405.329 103.945 404.733 100.22 402.796C96.494 401.008 93.5134 397.431 92.6192 393.258C92.1722 391.172 92.3212 388.936 93.0663 386.85C93.8114 384.764 95.3018 383.124 97.2391 381.932C99.0275 380.74 101.263 379.995 103.498 379.846C105.734 379.697 108.118 380.293 109.907 381.783C110.801 382.528 111.546 383.273 111.993 384.317C112.44 385.36 112.589 386.403 112.44 387.595C111.993 389.831 110.354 391.768 108.267 392.811C106.181 394.003 103.796 394.45 101.412 394.748C99.0274 395.047 96.643 395.196 94.4076 395.196C89.6386 395.345 85.0188 394.897 80.5479 394.45C71.4572 393.407 62.6646 391.917 54.319 391.917C45.9734 391.768 37.7769 392.96 30.9216 396.388C27.4939 398.027 24.5133 400.263 22.2779 402.945C19.8935 405.628 18.4032 408.757 17.8071 411.887C16.4658 418.295 17.9561 424.256 20.3406 428.727C22.874 433.198 26.3017 436.178 29.1332 438.116C32.1138 440.053 34.6472 441.245 36.4356 441.841C38.2239 442.438 39.1181 442.736 39.1181 442.736C39.1181 442.736 38.8201 442.587 38.373 442.438C37.9259 442.288 37.1807 441.99 36.4356 441.692C34.6472 440.947 32.1138 439.904 29.2822 437.818C26.4507 435.731 23.023 432.751 20.6386 428.429C18.2541 424.107 16.9129 418.146 18.2542 412.036C18.9993 409.055 20.3406 405.926 22.725 403.392C24.9604 400.859 27.941 398.623 31.2196 397.133C37.9259 393.854 45.9734 392.662 54.319 392.811C62.6646 392.96 71.4572 394.45 80.5479 395.345C85.1678 395.792 89.7877 396.239 94.5566 396.09C96.941 396.09 99.3255 395.941 101.71 395.643C104.094 395.345 106.628 394.897 108.714 393.705C110.95 392.513 112.738 390.427 113.185 387.893C113.483 386.701 113.185 385.36 112.738 384.167C112.142 382.975 111.397 382.081 110.354 381.336C108.416 379.846 105.883 379.25 103.498 379.25C101.114 379.399 98.7294 380.144 96.792 381.485C94.8546 382.826 93.2153 384.615 92.3212 386.85C91.427 389.085 91.427 391.47 91.8741 393.556C92.9173 398.027 96.0469 401.604 99.9216 403.541C103.796 405.479 108.118 406.075 111.993 405.628C116.017 405.18 119.742 403.839 123.021 401.902C124.66 400.859 126.151 399.815 127.343 398.474C128.684 397.133 129.876 395.941 130.77 394.301C131.516 392.662 131.963 391.023 132.261 389.383C132.559 387.744 132.857 386.105 133.006 384.615C133.751 378.355 134.198 372.543 134.645 367.476C135.092 362.409 135.539 358.088 135.986 354.66C136.434 351.083 137.03 348.401 137.626 346.612C137.924 345.718 138.073 344.973 138.371 344.675C138.52 343.781 138.669 343.632 138.669 343.632Z" fill="#06152B"/>
<path d="M52.6813 553.464C52.6813 553.464 52.6813 553.315 52.6813 552.868C52.6813 552.421 52.6813 551.825 52.6813 551.079C52.6813 549.44 52.6813 547.205 52.6813 544.075C52.6813 537.965 52.6813 529.023 52.8303 517.697C52.8303 495.045 52.9793 462.706 52.9793 423.958L52.6813 424.256C87.8519 424.256 128.984 424.256 172.947 424.256L172.5 423.809C172.5 471.498 172.5 515.909 172.5 553.315L172.798 553.017C136.733 553.017 106.779 553.166 85.7655 553.166C75.1845 553.166 66.988 553.166 61.3249 553.315C58.4934 553.315 56.407 553.315 54.9167 553.315C53.4264 553.464 52.6813 553.464 52.6813 553.464C52.6813 553.464 53.4264 553.464 54.9167 553.464C56.407 553.464 58.4934 553.464 61.3249 553.464C66.988 553.464 75.1845 553.464 85.6165 553.613C106.629 553.613 136.733 553.762 172.947 553.762H173.245V553.464C173.245 516.058 173.245 471.498 173.245 423.958V423.511H172.798C128.984 423.511 87.852 423.511 52.5323 423.511H52.2342V423.809C52.2342 462.557 52.3832 495.045 52.3832 517.697C52.3832 529.023 52.3832 537.965 52.5323 544.075C52.5323 547.056 52.5323 549.44 52.5323 550.93C52.5323 551.675 52.5323 552.272 52.5323 552.719C52.6813 553.315 52.6813 553.464 52.6813 553.464Z" fill="#06152B"/>
<path d="M87.1056 440.501C86.7763 440.501 86.5095 440.234 86.5095 439.905C86.5095 439.575 86.7763 439.309 87.1056 439.309C87.4348 439.309 87.7017 439.575 87.7017 439.905C87.7017 440.234 87.4348 440.501 87.1056 440.501Z" fill="#263238"/>
<path d="M83.8277 440.5C83.4985 440.5 83.2316 440.233 83.2316 439.904C83.2316 439.575 83.4985 439.308 83.8277 439.308C84.1569 439.308 84.4238 439.575 84.4238 439.904C84.4238 440.233 84.1569 440.5 83.8277 440.5Z" fill="#263238"/>
<path d="M80.3995 440.5C80.0703 440.5 79.8034 440.233 79.8034 439.904C79.8034 439.575 80.0703 439.308 80.3995 439.308C80.7287 439.308 80.9956 439.575 80.9956 439.904C80.9956 440.233 80.7287 440.5 80.3995 440.5Z" fill="#263238"/>
<path d="M76.878 440.591C76.5488 440.591 76.2819 440.324 76.2819 439.995C76.2819 439.665 76.5488 439.398 76.878 439.398C77.2072 439.398 77.4741 439.665 77.4741 439.995C77.4741 440.324 77.2072 440.591 76.878 440.591Z" fill="#263238"/>
<path d="M73.4507 440.591C73.1215 440.591 72.8546 440.324 72.8546 439.995C72.8546 439.665 73.1215 439.398 73.4507 439.398C73.7799 439.398 74.0469 439.665 74.0469 439.995C74.0469 440.324 73.7799 440.591 73.4507 440.591Z" fill="#263238"/>
<path d="M70.1168 440.5C69.7876 440.5 69.5207 440.233 69.5207 439.904C69.5207 439.575 69.7876 439.308 70.1168 439.308C70.446 439.308 70.7129 439.575 70.7129 439.904C70.7129 440.233 70.446 440.5 70.1168 440.5Z" fill="#263238"/>
<path d="M66.8394 440.5C66.5102 440.5 66.2433 440.233 66.2433 439.904C66.2433 439.575 66.5102 439.308 66.8394 439.308C67.1686 439.308 67.4355 439.575 67.4355 439.904C67.4355 440.233 67.1686 440.5 66.8394 440.5Z" fill="#263238"/>
<path d="M68.3291 442.885C67.9999 442.885 67.733 442.618 67.733 442.289C67.733 441.96 67.9999 441.693 68.3291 441.693C68.6584 441.693 68.9253 441.96 68.9253 442.289C68.9253 442.618 68.6584 442.885 68.3291 442.885Z" fill="#263238"/>
<path d="M71.6627 442.975C71.3335 442.975 71.0666 442.709 71.0666 442.379C71.0666 442.05 71.3335 441.783 71.6627 441.783C71.9919 441.783 72.2588 442.05 72.2588 442.379C72.2588 442.709 71.9919 442.975 71.6627 442.975Z" fill="#263238"/>
<path d="M75.2384 442.975C74.9091 442.975 74.6423 442.709 74.6423 442.379C74.6423 442.05 74.9091 441.783 75.2384 441.783C75.5676 441.783 75.8345 442.05 75.8345 442.379C75.8345 442.709 75.5676 442.975 75.2384 442.975Z" fill="#263238"/>
<path d="M78.6665 442.975C78.3373 442.975 78.0704 442.709 78.0704 442.379C78.0704 442.05 78.3373 441.783 78.6665 441.783C78.9958 441.783 79.2627 442.05 79.2627 442.379C79.2627 442.709 78.9958 442.975 78.6665 442.975Z" fill="#263238"/>
<path d="M82.1891 442.885C81.8598 442.885 81.5929 442.618 81.5929 442.289C81.5929 441.96 81.8598 441.693 82.1891 441.693C82.5183 441.693 82.7852 441.96 82.7852 442.289C82.7852 442.618 82.5183 442.885 82.1891 442.885Z" fill="#263238"/>
<path d="M85.7647 442.885C85.4355 442.885 85.1686 442.618 85.1686 442.289C85.1686 441.96 85.4355 441.693 85.7647 441.693C86.094 441.693 86.3608 441.96 86.3608 442.289C86.3608 442.618 86.094 442.885 85.7647 442.885Z" fill="#263238"/>
<path d="M87.106 445.418C86.7768 445.418 86.5099 445.151 86.5099 444.822C86.5099 444.492 86.7768 444.226 87.106 444.226C87.4353 444.226 87.7021 444.492 87.7021 444.822C87.7021 445.151 87.4353 445.418 87.106 445.418Z" fill="#263238"/>
<path d="M83.8277 445.418C83.4985 445.418 83.2316 445.151 83.2316 444.822C83.2316 444.492 83.4985 444.226 83.8277 444.226C84.1569 444.226 84.4238 444.492 84.4238 444.822C84.4238 445.151 84.1569 445.418 83.8277 445.418Z" fill="#263238"/>
<path d="M80.3995 445.418C80.0703 445.418 79.8034 445.151 79.8034 444.822C79.8034 444.492 80.0703 444.226 80.3995 444.226C80.7287 444.226 80.9956 444.492 80.9956 444.822C80.9956 445.151 80.7287 445.418 80.3995 445.418Z" fill="#263238"/>
<path d="M76.878 445.508C76.5488 445.508 76.2819 445.241 76.2819 444.912C76.2819 444.583 76.5488 444.316 76.878 444.316C77.2072 444.316 77.4741 444.583 77.4741 444.912C77.4741 445.241 77.2072 445.508 76.878 445.508Z" fill="#263238"/>
<path d="M73.4507 445.508C73.1215 445.508 72.8546 445.241 72.8546 444.912C72.8546 444.583 73.1215 444.316 73.4507 444.316C73.7799 444.316 74.0469 444.583 74.0469 444.912C74.0469 445.241 73.7799 445.508 73.4507 445.508Z" fill="#263238"/>
<path d="M70.1168 445.418C69.7876 445.418 69.5207 445.151 69.5207 444.822C69.5207 444.492 69.7876 444.226 70.1168 444.226C70.446 444.226 70.7129 444.492 70.7129 444.822C70.7129 445.151 70.446 445.418 70.1168 445.418Z" fill="#263238"/>
<path d="M66.8394 445.418C66.5102 445.418 66.2433 445.151 66.2433 444.822C66.2433 444.492 66.5102 444.226 66.8394 444.226C67.1686 444.226 67.4355 444.492 67.4355 444.822C67.4355 445.151 67.1686 445.418 66.8394 445.418Z" fill="#263238"/>
<path d="M68.3291 447.653C67.9999 447.653 67.733 447.386 67.733 447.057C67.733 446.728 67.9999 446.461 68.3291 446.461C68.6584 446.461 68.9253 446.728 68.9253 447.057C68.9253 447.386 68.6584 447.653 68.3291 447.653Z" fill="#263238"/>
<path d="M71.6627 447.743C71.3335 447.743 71.0666 447.476 71.0666 447.147C71.0666 446.818 71.3335 446.551 71.6627 446.551C71.9919 446.551 72.2588 446.818 72.2588 447.147C72.2588 447.476 71.9919 447.743 71.6627 447.743Z" fill="#263238"/>
<path d="M75.2384 447.743C74.9091 447.743 74.6423 447.476 74.6423 447.147C74.6423 446.818 74.9091 446.551 75.2384 446.551C75.5676 446.551 75.8345 446.818 75.8345 447.147C75.8345 447.476 75.5676 447.743 75.2384 447.743Z" fill="#263238"/>
<path d="M78.6665 447.743C78.3373 447.743 78.0704 447.476 78.0704 447.147C78.0704 446.818 78.3373 446.551 78.6665 446.551C78.9958 446.551 79.2627 446.818 79.2627 447.147C79.2627 447.476 78.9958 447.743 78.6665 447.743Z" fill="#263238"/>
<path d="M82.1891 447.653C81.8598 447.653 81.5929 447.386 81.5929 447.057C81.5929 446.728 81.8598 446.461 82.1891 446.461C82.5183 446.461 82.7852 446.728 82.7852 447.057C82.7852 447.386 82.5183 447.653 82.1891 447.653Z" fill="#263238"/>
<path d="M85.7647 447.653C85.4355 447.653 85.1686 447.386 85.1686 447.057C85.1686 446.728 85.4355 446.461 85.7647 446.461C86.094 446.461 86.3608 446.728 86.3608 447.057C86.3608 447.386 86.094 447.653 85.7647 447.653Z" fill="#263238"/>
<path d="M87.106 450.336C86.7768 450.336 86.5099 450.069 86.5099 449.74C86.5099 449.411 86.7768 449.144 87.106 449.144C87.4353 449.144 87.7021 449.411 87.7021 449.74C87.7021 450.069 87.4353 450.336 87.106 450.336Z" fill="#263238"/>
<path d="M83.8277 450.336C83.4985 450.336 83.2316 450.069 83.2316 449.74C83.2316 449.411 83.4985 449.144 83.8277 449.144C84.1569 449.144 84.4238 449.411 84.4238 449.74C84.4238 450.069 84.1569 450.336 83.8277 450.336Z" fill="#263238"/>
<path d="M80.3995 450.336C80.0703 450.336 79.8034 450.069 79.8034 449.74C79.8034 449.411 80.0703 449.144 80.3995 449.144C80.7287 449.144 80.9956 449.411 80.9956 449.74C80.9956 450.069 80.7287 450.336 80.3995 450.336Z" fill="#263238"/>
<path d="M76.878 450.427C76.5488 450.427 76.2819 450.16 76.2819 449.831C76.2819 449.502 76.5488 449.235 76.878 449.235C77.2072 449.235 77.4741 449.502 77.4741 449.831C77.4741 450.16 77.2072 450.427 76.878 450.427Z" fill="#263238"/>
<path d="M73.4507 450.427C73.1215 450.427 72.8546 450.16 72.8546 449.831C72.8546 449.502 73.1215 449.235 73.4507 449.235C73.7799 449.235 74.0469 449.502 74.0469 449.831C74.0469 450.16 73.7799 450.427 73.4507 450.427Z" fill="#263238"/>
<path d="M70.1168 450.336C69.7876 450.336 69.5207 450.069 69.5207 449.74C69.5207 449.411 69.7876 449.144 70.1168 449.144C70.446 449.144 70.7129 449.411 70.7129 449.74C70.7129 450.069 70.446 450.336 70.1168 450.336Z" fill="#263238"/>
<path d="M66.8394 450.336C66.5102 450.336 66.2433 450.069 66.2433 449.74C66.2433 449.411 66.5102 449.144 66.8394 449.144C67.1686 449.144 67.4355 449.411 67.4355 449.74C67.4355 450.069 67.1686 450.336 66.8394 450.336Z" fill="#263238"/>
<path d="M68.3291 452.572C67.9999 452.572 67.733 452.305 67.733 451.975C67.733 451.646 67.9999 451.379 68.3291 451.379C68.6584 451.379 68.9253 451.646 68.9253 451.975C68.9253 452.305 68.6584 452.572 68.3291 452.572Z" fill="#263238"/>
<path d="M71.6627 452.662C71.3335 452.662 71.0666 452.396 71.0666 452.066C71.0666 451.737 71.3335 451.47 71.6627 451.47C71.9919 451.47 72.2588 451.737 72.2588 452.066C72.2588 452.396 71.9919 452.662 71.6627 452.662Z" fill="#263238"/>
<path d="M75.2384 452.662C74.9091 452.662 74.6423 452.396 74.6423 452.066C74.6423 451.737 74.9091 451.47 75.2384 451.47C75.5676 451.47 75.8345 451.737 75.8345 452.066C75.8345 452.396 75.5676 452.662 75.2384 452.662Z" fill="#263238"/>
<path d="M78.6665 452.662C78.3373 452.662 78.0704 452.396 78.0704 452.066C78.0704 451.737 78.3373 451.47 78.6665 451.47C78.9958 451.47 79.2627 451.737 79.2627 452.066C79.2627 452.396 78.9958 452.662 78.6665 452.662Z" fill="#263238"/>
<path d="M82.1891 452.572C81.8598 452.572 81.5929 452.305 81.5929 451.975C81.5929 451.646 81.8598 451.379 82.1891 451.379C82.5183 451.379 82.7852 451.646 82.7852 451.975C82.7852 452.305 82.5183 452.572 82.1891 452.572Z" fill="#263238"/>
<path d="M85.7647 452.572C85.4355 452.572 85.1686 452.305 85.1686 451.975C85.1686 451.646 85.4355 451.379 85.7647 451.379C86.094 451.379 86.3608 451.646 86.3608 451.975C86.3608 452.305 86.094 452.572 85.7647 452.572Z" fill="#263238"/>
<path d="M571.745 332.903V347.209H492.909V559.426H485.607V347.209L156.105 348.849V559.426H148.952V348.402L98.1335 348.849V331.71L571.745 332.903Z" fill="#4D44B5"/>
<path d="M521.225 344.377L490.078 366.732L492.909 369.414L524.205 345.719L521.225 344.377Z" fill="#FF69B4"/>
<path d="M119.594 346.464L155.808 372.246L153.126 374.779L116.763 347.805L119.594 346.464Z" fill="#FF69B4"/>
<path d="M375.475 327.686H456.993V333.647H375.475V327.686Z" fill="#263238"/>
</svg>
